<svg xmlns="http://www.w3.org/2000/svg" width="32" height="32" fill="#000000" viewBox="0 0 256 256"><path d="M224,56H32A16,16,0,0,0,16,72V184a16,16,0,0,0,16,16H224a16,16,0,0,0,16-16V72A16,16,0,0,0,224,56Zm0,128H32V72H224ZM56,104a8,8,0,0,1,8-8H80a8,8,0,0,1,0,16H64A8,8,0,0,1,56,104Zm48,0a8,8,0,0,1,8-8h16a8,8,0,0,1,0,16H112A8,8,0,0,1,104,104Zm48,0a8,8,0,0,1,8-8h16a8,8,0,0,1,0,16H160A8,8,0,0,1,152,104ZM56,144a8,8,0,0,1,8-8h96a8,8,0,0,1,0,16H64A8,8,0,0,1,56,144Zm128,0a8,8,0,0,1,8-8h8a8,8,0,0,1,0,16h-8A8,8,0,0,1,184,144Z"/></svg>
